<?xml version="1.0" standalone="no"?>
<!DOCTYPE svg PUBLIC "-//W3C//DTD SVG 20010904//EN"
 "http://www.w3.org/TR/2001/REC-SVG-20010904/DTD/svg10.dtd">
<svg version="1.0" xmlns="http://www.w3.org/2000/svg"
 width="300.000000pt" height="300.000000pt" viewBox="0 0 300.000000 300.000000"
 preserveAspectRatio="xMidYMid meet">
<g transform="translate(0.000000,300.000000) scale(0.100000,-0.100000)"
fill="#000000" stroke="none">
<path d="M1292 2984 c-93 -13 -233 -47 -286 -69 -28 -12 -28 -12 70 -65 113
-60 253 -145 336 -202 l57 -40 40 32 c67 54 123 128 132 174 14 71 11 153 -7
170 -20 20 -205 20 -342 0z"/>
<path d="M1800 2892 c0 -138 -26 -196 -142 -318 l-57 -60 94 -82 95 -82 62 38
c226 137 386 201 593 237 l40 7 -35 29 c-143 119 -356 229 -540 280 -41 11
-83 23 -92 25 -16 5 -18 -3 -18 -74z"/>
<path d="M674 2748 c-144 -94 -323 -273 -416 -413 -69 -105 -123 -204 -115
-212 3 -2 40 7 83 21 115 36 211 59 471 110 241 48 330 74 448 133 81 41 195
112 195 121 0 4 -8 12 -17 18 -155 99 -242 150 -370 216 -85 43 -158 78 -162
78 -4 0 -57 -32 -117 -72z"/>
<path d="M2520 2485 c-126 -21 -249 -54 -322 -84 -57 -24 -222 -113 -277 -150
-11 -7 -1 -24 50 -83 52 -58 106 -125 135 -167 2 -2 43 7 91 20 69 18 114 23
208 24 114 0 123 -2 188 -32 98 -46 186 -112 293 -220 104 -103 105 -103 78
23 -25 123 -52 202 -114 329 -77 161 -212 357 -243 354 -7 -1 -46 -7 -87 -14z"/>
<path d="M1385 2354 c-184 -125 -342 -187 -610 -239 -378 -73 -536 -115 -657
-176 -54 -27 -58 -32 -72 -82 -29 -105 -41 -205 -40 -357 0 -174 16 -286 65
-445 50 -160 190 -434 203 -395 2 8 12 40 21 70 27 89 138 307 210 415 233
348 678 785 1093 1075 l64 44 -34 28 c-71 61 -147 118 -155 117 -4 0 -44 -25
-88 -55z"/>
<path d="M1750 2142 c-13 -9 -90 -66 -170 -126 -603 -454 -1037 -973 -1154
-1380 -41 -139 -40 -141 59 -234 203 -192 512 -346 761 -378 l50 -6 31 73 c87
209 165 487 309 1097 95 402 155 553 272 672 57 59 62 67 51 87 -11 20 -177
214 -182 212 -1 0 -13 -8 -27 -17z"/>
<path d="M2275 1883 c-38 -8 -72 -16 -74 -18 -2 -3 24 -60 57 -127 155 -316
261 -722 302 -1153 7 -66 13 -121 15 -123 6 -7 119 127 169 202 138 207 225
452 251 706 l7 66 -75 89 c-41 50 -114 129 -163 176 -192 185 -296 224 -489
182z"/>
<path d="M2008 1752 c-92 -102 -136 -221 -238 -652 -123 -520 -206 -820 -275
-995 -19 -49 -35 -93 -35 -97 0 -13 127 -9 240 7 243 35 462 121 660 259 l64
45 -2 83 c-12 354 -113 832 -243 1143 -43 105 -112 238 -126 242 -5 2 -26 -14
-45 -35z"/>
</g>
</svg>
