<?xml version="1.0" standalone="no"?>
<!DOCTYPE svg PUBLIC "-//W3C//DTD SVG 20010904//EN"
 "http://www.w3.org/TR/2001/REC-SVG-20010904/DTD/svg10.dtd">
<svg version="1.0" xmlns="http://www.w3.org/2000/svg" viewBox="0 0 300.000000 300.000000" preserveAspectRatio="xMidYMid meet">
<g transform="translate(0.000000,300.000000) scale(0.100000,-0.100000)"
fill="#000000" stroke="none">
<path d="M1295 2984 c-346 -53 -628 -197 -867 -442 -325 -335 -478 -794 -412
-1241 49 -336 180 -604 412 -843 524 -539 1330 -609 1951 -170 171 121 360
342 457 535 192 381 215 818 63 1212 -153 395 -470 712 -868 866 -224 87 -505
119 -736 83z m-49 -322 l189 -138 0 -259 0 -260 -76 -55 c-42 -30 -131 -94
-197 -142 -67 -49 -129 -88 -139 -87 -10 1 -121 35 -248 77 l-230 77 -72 220
c-39 121 -72 225 -72 232 -1 19 186 209 264 268 41 31 107 74 146 97 75 43
216 108 235 108 7 0 97 -62 200 -138z m869 67 c66 -32 159 -89 206 -124 88
-66 280 -257 278 -278 0 -7 -33 -111 -72 -232 l-72 -220 -230 -77 c-127 -42
-238 -76 -248 -77 -10 -1 -72 38 -139 87 -66 48 -155 112 -197 142 l-76 55 0
260 0 259 189 139 c159 116 194 137 215 132 14 -3 80 -33 146 -66z m-1375
-1044 c278 -89 257 -79 274 -135 8 -27 42 -133 76 -238 l62 -189 -148 -206
-149 -207 -242 0 -242 0 -29 43 c-71 102 -139 260 -177 407 -23 91 -51 288
-43 309 6 17 389 290 401 286 7 -2 104 -34 217 -70z m1945 -68 c99 -72 184
-134 189 -138 12 -11 -11 -215 -35 -309 -37 -143 -112 -318 -181 -417 l-29
-43 -242 0 -242 1 -149 206 -148 206 62 189 c34 105 68 212 76 238 17 56 -7
45 299 144 110 35 204 62 210 58 5 -3 91 -64 190 -135z m-781 -773 l149 -205
-73 -222 c-39 -122 -77 -227 -83 -234 -7 -6 -59 -22 -117 -34 -151 -33 -409
-33 -560 0 -58 12 -110 28 -117 34 -6 7 -44 112 -83 234 l-73 222 149 205 149
205 255 0 255 0 149 -205z"/>
</g>
</svg>
