<?xml version="1.0" standalone="no"?>
<!DOCTYPE svg PUBLIC "-//W3C//DTD SVG 20010904//EN"
 "http://www.w3.org/TR/2001/REC-SVG-20010904/DTD/svg10.dtd">
<svg version="1.0" xmlns="http://www.w3.org/2000/svg"
 viewBox="0 0 300.000000 300.000000"
 preserveAspectRatio="xMidYMid meet">
<g transform="translate(0.000000,300.000000) scale(0.100000,-0.100000)"
fill="#000000" stroke="none">
<path d="M296 2983 c-141 -43 -229 -164 -229 -313 0 -61 5 -86 28 -134 34 -71
85 -124 151 -157 41 -20 64 -24 144 -24 80 0 103 4 144 24 137 68 213 232 173
372 -54 185 -234 287 -411 232z"/>
<path d="M1680 2874 c-239 -37 -492 -163 -697 -346 -186 -166 -304 -351 -359
-567 l-19 -71 671 -671 670 -670 89 26 c50 14 131 46 181 70 325 157 611 528
700 910 15 62 19 119 19 250 0 186 -13 251 -78 400 -69 159 -221 350 -369 463
-235 180 -517 252 -808 206z"/>
<path d="M590 1593 c0 -75 18 -169 52 -283 28 -92 32 -119 32 -215 0 -79 -5
-120 -17 -146 -21 -47 -105 -125 -323 -299 -266 -212 -274 -221 -274 -307 0
-71 39 -144 118 -222 107 -107 209 -144 288 -103 48 25 58 35 235 257 180 225
253 303 304 326 30 14 64 19 140 19 106 0 119 -3 259 -44 76 -22 274 -51 285
-41 2 2 -245 252 -548 554 l-551 551 0 -47z"/>
</g>
</svg>
