<?xml version="1.0" standalone="no"?>
<!DOCTYPE svg PUBLIC "-//W3C//DTD SVG 20010904//EN"
 "http://www.w3.org/TR/2001/REC-SVG-20010904/DTD/svg10.dtd">
<svg version="1.0" xmlns="http://www.w3.org/2000/svg"
 width="300.000000pt" height="300.000000pt" viewBox="0 0 300.000000 300.000000"
 preserveAspectRatio="xMidYMid meet">
<g transform="translate(0.000000,300.000000) scale(0.100000,-0.100000)"
fill="#000000" stroke="none">
<path d="M1554 2954 c26 -180 126 -427 250 -613 137 -206 339 -407 543 -541
183 -121 430 -221 607 -246 l49 -7 -7 74 c-72 743 -632 1303 -1375 1375 l-74
7 7 -49z"/>
<path d="M1235 2975 c-584 -106 -1055 -549 -1189 -1116 -14 -57 -28 -130 -31
-161 l-7 -57 38 -6 c186 -30 327 -75 499 -160 411 -201 743 -537 941 -950 75
-156 121 -304 149 -477 7 -45 5 -44 136 -22 371 64 728 291 953 607 134 189
236 450 261 669 l7 56 -48 7 c-83 12 -245 55 -334 89 -619 239 -1110 808
-1232 1427 -25 125 -14 118 -143 94z"/>
<path d="M4 1378 c72 -741 633 -1302 1374 -1374 48 -4 72 -3 72 4 0 31 -32
170 -60 254 -34 107 -134 312 -195 398 -155 222 -315 382 -535 535 -87 61
-291 161 -398 195 -84 28 -223 60 -254 60 -7 0 -8 -24 -4 -72z"/>
</g>
</svg>
