<?xml version="1.0" standalone="no"?>
<!DOCTYPE svg PUBLIC "-//W3C//DTD SVG 20010904//EN"
 "http://www.w3.org/TR/2001/REC-SVG-20010904/DTD/svg10.dtd">
<svg version="1.0" xmlns="http://www.w3.org/2000/svg"
 viewBox="0 0 300.000000 300.000000"
 preserveAspectRatio="xMidYMid meet">
<g transform="translate(0.000000,300.000000) scale(0.100000,-0.100000)"
fill="#000000" stroke="none">
<path d="M1265 2984 c-341 -53 -677 -240 -902 -503 -206 -241 -331 -538 -359
-852 l-6 -75 78 -36 c98 -44 248 -93 334 -107 36 -6 74 -14 86 -16 21 -5 21
-1 27 183 4 134 12 215 27 287 96 455 377 861 758 1094 28 18 52 35 52 37 0 2
-1 4 -2 3 -2 -1 -43 -7 -93 -15z"/>
<path d="M1687 2950 c-511 -190 -880 -632 -973 -1165 -18 -103 -26 -387 -11
-401 14 -14 250 15 369 45 115 29 300 100 327 126 8 8 17 51 22 107 29 316
149 619 346 873 72 93 241 261 306 305 20 14 37 27 37 30 0 15 -303 112 -339
110 -3 -1 -41 -14 -84 -30z"/>
<path d="M2219 2728 c-78 -54 -319 -288 -319 -310 0 -7 37 -32 83 -56 127 -65
262 -166 382 -287 139 -139 227 -262 314 -440 107 -215 151 -376 174 -627 l13
-133 32 85 c73 188 108 406 99 610 -22 472 -256 895 -645 1168 l-60 42 -73
-52z"/>
<path d="M1745 2169 c-80 -158 -136 -358 -151 -535 l-7 -80 64 -44 c274 -185
506 -481 624 -795 36 -95 82 -276 90 -358 4 -37 10 -67 13 -67 13 0 114 86
184 157 74 76 77 80 93 153 22 105 31 354 16 474 -54 424 -299 826 -645 1058
-78 51 -215 128 -231 128 -2 0 -25 -41 -50 -91z"/>
<path d="M1415 1364 c-209 -101 -459 -155 -715 -154 -239 0 -400 29 -608 110
-42 16 -78 27 -81 24 -8 -8 25 -191 48 -264 18 -56 28 -73 75 -113 178 -153
402 -272 618 -327 355 -91 725 -52 1053 112 91 45 195 111 195 123 0 28 -121
195 -210 289 -81 86 -272 238 -297 235 -4 0 -39 -16 -78 -35z"/>
<path d="M2025 674 c-124 -86 -360 -181 -562 -226 -86 -20 -127 -22 -333 -22
-205 0 -248 3 -333 22 -145 32 -302 87 -421 147 l-106 53 18 -31 c9 -17 75
-91 147 -163 231 -233 471 -363 788 -426 158 -31 396 -31 554 0 123 25 284 77
373 122 l56 28 -8 97 c-12 136 -92 436 -116 434 -4 0 -29 -16 -57 -35z"/>
</g>
</svg>
